<?xml version="1.0" encoding="UTF-8" standalone="no"?> <!-- Created with Vectornator for iOS (http://vectornator.io/) --><!DOCTYPE svg PUBLIC "-//W3C//DTD SVG 1.1//EN" "http://www.w3.org/Graphics/SVG/1.1/DTD/svg11.dtd">
<svg height="100%" style="fill-rule:nonzero;clip-rule:evenodd;stroke-linecap:round;stroke-linejoin:round;" xmlns:xlink="http://www.w3.org/1999/xlink" xmlns="http://www.w3.org/2000/svg" xml:space="preserve" width="100%" xmlns:vectornator="http://vectornator.io" version="1.1" viewBox="0 0 1024 1024">
<metadata>
<vectornator:setting key="DimensionsVisible" value="1"/>
<vectornator:setting key="PencilOnly" value="0"/>
<vectornator:setting key="SnapToPoints" value="0"/>
<vectornator:setting key="OutlineMode" value="0"/>
<vectornator:setting key="CMYKEnabledKey" value="0"/>
<vectornator:setting key="RulersVisible" value="1"/>
<vectornator:setting key="SnapToEdges" value="0"/>
<vectornator:setting key="GuidesVisible" value="1"/>
<vectornator:setting key="DisplayWhiteBackground" value="0"/>
<vectornator:setting key="doHistoryDisabled" value="0"/>
<vectornator:setting key="SnapToGuides" value="1"/>
<vectornator:setting key="TimeLapseWatermarkDisabled" value="0"/>
<vectornator:setting key="Units" value="Points"/>
<vectornator:setting key="DynamicGuides" value="0"/>
<vectornator:setting key="IsolateActiveLayer" value="0"/>
<vectornator:setting key="SnapToGrid" value="0"/>
</metadata>
<defs/>
<g id="BG" vectornator:layerName="BG">
<path d="M-0.180033+512.698C-0.180033+229.474+229.217-0.124668+512.191-0.124668C795.166-0.124668+1024.56+229.474+1024.56+512.698C1024.56+795.922+795.166+1025.52+512.191+1025.52C229.217+1025.52-0.180033+795.922-0.180033+512.698Z" fill-rule="evenodd" fill="#1e242b" opacity="1"/>
</g>
<g id="Layer 1" vectornator:layerName="Layer 1">
<path d="M503.125+139.719C503.046+139.824+499.089+158.002+498.438+162.344C493.959+184.221+487.708+216.127+485.375+233.156C484.807+237.301+478.553+249.431+476.281+251.469C467.823+259.056+450.811+266.865+434.188+277.188C424.037+282.414+416.543+287.918+410.5+295.062C405.915+299.552+401.832+304.451+398.656+309.875C393.252+319.105+389.361+330.139+385.531+340.844C382.087+348.428+357.22+393.53+347.375+405.906C284.196+474.425+182.186+446.979+132.688+477L131.75+477.188C131.277+477.49+126.819+480.426+121.219+484.5C87.271+508.104+72.6873+532.951+67.5312+555.5C67.3239+556.319+65.0196+576.634+65.1562+579.219C65.8502+604.126+76.4062+630.75+76.4062+630.75C76.4062+630.75+79.1893+636.168+84.0018+639.441C88.8143+642.715+95.6562+643.844+95.6562+643.844C95.6562+643.844+144.118+640.251+184.188+636.219C203.596+635.149+222.225+634.861+236.594+637.281C263.942+641.889+287.718+690.946+303.781+726.688C307.847+735.734+316.529+743.086+328.5+749.094C334.131+753.455+340.47+757.302+347.844+760.375C350.128+761.327+366.038+763.353+386.75+765.469C415.729+770.086+602.257+771.341+639.344+765.188C658.519+763.178+673.411+761.285+675.594+760.375C682.824+757.362+689.044+753.599+694.594+749.344C706.786+743.298+715.574+735.841+719.688+726.688C735.751+690.946+759.495+641.889+786.844+637.281C801.129+634.874+819.65+635.133+838.938+636.188C839.031+636.193+839.125+636.214+839.219+636.219C879.296+640.25+923.307+648.81+927.781+643.844C928.382+643.178+934.689+644.878+939.501+641.605C944.314+638.331+946.681+633.368+947.031+630.75C947.99+623.572+957.587+604.126+958.281+579.219C958.598+573.229+956.091+556.093+955.781+554.906C950.504+532.513+935.871+507.899+902.219+484.5C896.618+480.426+892.161+477.49+891.688+477.188L890.812+477.031C841.328+446.975+739.258+474.442+676.062+405.906C666.149+393.444+641.311+348.259+637.844+340.625C634.038+329.987+630.15+319.044+624.781+309.875C621.558+304.37+617.451+299.388+612.781+294.844C606.774+287.797+599.304+282.365+589.25+277.188C572.627+266.865+555.614+259.056+547.156+251.469C544.884+249.431+538.662+237.301+538.094+233.156C535.761+216.127+529.478+184.221+525+162.344C524.348+158.002+520.392+139.824+520.312+139.719C519.918+139.192+518.315+131.757+512.273+131.757C507.976+131.757+503.125+139.719+503.125+139.719Z" fill-rule="evenodd" fill="#cf76c1" opacity="1"/>
<path d="M622.488+352.799C628.447+348.281+614.778+295.247+599.873+295.43C583.776+295.628+576.981+335.657+586.003+343.131C602.718+356.978+613.04+359.963+622.488+352.799Z" fill-rule="evenodd" fill="#000000" opacity="1"/>
<path d="M396.429+352.798C390.47+348.28+404.139+295.247+419.044+295.43C435.14+295.628+441.935+335.656+432.913+343.13C416.199+356.977+405.877+359.962+396.429+352.798Z" fill-rule="evenodd" fill="#000000" opacity="1"/>
<path d="M442.209+421.485C434.098+416.062+444.765+404.133+451.257+411.374C452.669+412.31+453.982+413.381+455.315+414.421C457.243+415.793+459.192+417.146+461.263+418.297C472.204+422.958+484.089+426.438+496.094+426.299C516.029+425.793+536.313+424.034+554.887+416.188C556.913+415.31+558.818+414.189+560.776+413.175C567.084+404.495+580.999+414.924+572.138+422.116C533.272+442.776+479.185+449.534+442.209+421.485L442.209+421.485Z" fill-rule="evenodd" fill="#000000" opacity="1"/>
</g>
</svg>
